<?xml version="1.0" encoding="utf-8"?>
<!-- Generator: Adobe Illustrator 25.0.1, SVG Export Plug-In . SVG Version: 6.00 Build 0)  -->
<svg version="1.1" id="Layer_1" xmlns="http://www.w3.org/2000/svg" xmlns:xlink="http://www.w3.org/1999/xlink" x="0px" y="0px"
	 viewBox="0 0 500 500" style="enable-background:new 0 0 500 500;" xml:space="preserve">
<style type="text/css">
	.st0{fill:#F9AE42;}
	.st1{fill:#F6B24B;}
	.st2{fill:#F5F5F5;}
</style>
<g>
	<g>
		<path class="st0" d="M389.86,377.44c-8.9-9.3-17.18-17.96-25.45-26.62c-11.94-12.51-23.85-25.07-35.83-37.54
			c-4.19-4.36-7.26-9.3-9.08-15.09c-1.96-6.25-4.17-12.42-6.53-19.38c-1.41,14.09,0.02,27.14,2.87,40.1c1,4.55-0.58,7.63-4.37,8.56
			c-4,0.98-6.79-1.08-7.92-5.86c-3.91-16.51-4.66-33.18-2.72-50.02c0.92-7.94,1.45-15.93,2.25-23.89c0.4-4,2.25-5.99,5.47-6.29
			c3.58-0.33,5.76,1.16,7.07,5.08c5.27,15.75,10.55,31.5,15.72,47.29c1.38,4.22,3.58,7.76,6.66,10.96
			c24.83,25.9,49.57,51.89,74.36,77.83c2.32,2.43,3.57,5.04,1.94,8.32c-1.44,2.9-4.03,3.92-8.23,3.01
			c-21.25-4.62-42.49-9.3-63.72-13.96c-3.89-0.85-7.89-1.4-11.64-2.68c-12.13-4.11-18.45-13.12-20.59-25.42
			c-0.31-1.79-0.85-3.57-0.96-5.37c-0.21-3.41,1.86-5.77,5.33-6.41c3-0.55,5.96,1.14,6.88,4.21c0.78,2.61,1.22,5.32,1.83,7.98
			c1.63,7.11,5.96,11.74,13.04,13.4c10.42,2.45,20.91,4.62,31.37,6.91C374.73,374.1,381.87,375.68,389.86,377.44z"/>
		<path class="st0" d="M218.82,133.33c0.08,12.3-6.34,17.73-18.13,21.48c-6.81,2.17-13.36,5.03-19.76,8
			c-6.69,3.11-12.77,7.6-17.65,13.5c-7.91,9.56-12.04,20.59-13.38,32.78c-0.33,3.04,1.91,6.29,4.31,6.72
			c3.89,0.7,6.97-1.01,8.02-4.6c0.48-1.63,0.75-3.33,1.06-5.01c2.95-16.26,12.1-27.35,27.5-33.4c6.56-2.58,13.03-5.39,19.48-8.23
			c6.32-2.78,11.27-7.16,15.01-13.02c3.29-5.15,4.67-6.99,5.55-12.74 M296.59,433.88c6.3,0.92,1.28,2.12,7.73,2.29
			c7.43,0.2,14.54,2.86,22.04,3.18c5.25,0.22,10.43,2.1,15.62,2.42c13.27,0.84,26.2,3.88,39.37,5.37
			c12.79,1.45,25.18,1.26,37.41-3.08c6.33-2.25,12.42-5.16,17.8-8.91c6.24-4.35,11.79-9.86,16.16-16.19
			c6.65-9.64,2.63-23.9-7.94-28.94c-1.35-0.64-2.21-1.45-2.95-2.59c-5.26-8.11-10.54-16.21-15.77-24.33
			c-4-6.21-7.72-12.6-11.94-18.66c-8.31-11.95-15.86-24.38-23.9-36.5c-5.55-8.36-11.17-16.69-16.41-25.25
			c-2.51-4.11-6.09-7.69-7.23-12.54c-3.1-13.15-5.91-26.37-9.12-39.49c-3.18-13-5.24-26.27-9.57-38.98c0,0-4.75-9.22-8.87-14.63
			c-6.4-8.4-15.4-13.24-24.74-17.16c-5.71-2.4-11.62-4.47-17.3-7c-6.06-2.7-9.99-7.49-11.89-13.82c-0.68-2.27-0.66-4.77-1.38-7.03
			l-12.28,4.04c2.59,14.06,9.59,24.11,22.96,29.55c6.85,2.79,13.66,5.71,20.46,8.62c5.77,2.47,10.3,6.55,14.71,10.94
			c6.02,6,7.92,14.56,7.92,14.56c4.59,19.96,9.1,39.94,13.77,59.88c2.15,9.17,3.44,18.62,9.5,26.49c3.54,4.6,6.44,9.68,9.6,14.57
			c20.94,32.36,41.87,64.72,62.81,97.07c0.9,1.4,2.24,2.24,3.78,2.82c7.09,2.66,8.49,8.1,3.38,13.76
			c-14.2,15.7-31.72,23.08-52.98,20.69c-6.68-0.75-13.33-1.83-20-2.76c-16.62-2.33-33.25-4.65-49.86-7.01
			c-17.05-2.43-11.4-1.14-28.45-3.56 M219.23,420.33c-15.24,2.17-30.49,4.31-45.74,6.47c-16.94,2.4-33.92,4.57-50.81,7.3
			c-12.41,2-24.5,2.07-36.38-2.52c-9.8-3.79-18.04-9.75-24.83-17.71c-4.04-4.74-3.31-10.54,1.93-12.48c3.9-1.44,6.08-4.05,8.04-7.34
			c2.16-3.62,4.58-7.09,6.87-10.63c21.79-33.59,43.57-67.18,65.35-100.77c2.38-3.67,3.93-7.69,4.88-11.95
			c1.14-5.11,2.32-10.21,3.48-15.32c1.5-6.67,3.12-13.32,4.45-20.02c0.74-3.74-1.89-7.82-5.54-8.09c-2.51-0.19-5.19,1.33-6.1,3.94
			c-2.17,6.19-3.93,12.56-4.74,19.05c-0.32,2.52-2.14,4.18-2.2,6.85c-0.09,4-0.97,8.08-2.16,11.92c-1.77,5.68-5.54,10.42-8.54,15.48
			c-4.38,7.37-9.42,14.36-14.09,21.57c-6.32,9.78-12.41,19.72-18.89,29.4c-3.4,5.08-6.49,10.34-10.44,15.13
			c-2.46,2.99-4.37,6.86-6.29,10.5c-4.38,8.31-10.7,15.44-15.35,23.64c-0.91,1.6-1.51,3.76-3.75,4.32
			c-3.02,0.76-4.63,3.24-6.68,5.26c-6.89,6.81-7.53,20.95,0.19,28.36c4.32,4.15,8.17,8.73,13.17,12.22
			c5.03,3.52,10.42,6.53,15.95,8.88c8.6,3.65,17.97,4.56,27.33,4.34c7.63-0.18,15.15-1.28,22.7-2.58
			c14.52-2.5,29.18-4.23,43.78-6.29c11.26-1.59,22.51-3.23,33.78-4.82 M251.89,271.95c0.11-0.11,0.2-0.21,0.25-0.3
			C252.09,271.74,252.01,271.84,251.89,271.95z"/>
		<path class="st0" d="M199.37,248.01c-0.12-1.92-0.57-3.82-2.21-5.2c-3.74-3.14-8.79-1.48-10.5,3.62
			c-4.92,14.67-9.76,29.36-14.63,44.04c-1.51,4.54-2.88,9.12-6.32,12.73c-17.69,18.5-35.35,37.03-53.02,55.56
			c-7.81,8.19-15.62,16.39-23.42,24.59c-2.21,2.33-2.72,5-1.09,7.82c1.55,2.69,4,3.56,7.02,2.86c0.78-0.18,1.57-0.27,2.35-0.44
			c21.7-4.71,43.39-9.47,65.1-14.13c8.48-1.82,16.61-4.1,22.39-11.3c3.13-3.9,5.36-8.17,6.32-13.08c1.77-9.04,4.45-17.9,5.55-27.08
			c0,0,0,0-0.01,0c0.51-0.13,0.57-0.5,0.48-0.96c0.18-0.78,0.57-1.54,0.19-2.36c1.15-2.32,1.69-4.79,1.82-7.36
			c0.95-2.41,1.15-4.95,1.34-7.5c1.19-5.03,1.43-10.16,1.61-15.3C202.9,278.93,200.32,263.52,199.37,248.01z M184.28,338.59
			c0.08-0.54,0.24-1.13,0.24-1.67C184.52,337.46,184.36,338.04,184.28,338.59z M183.19,333.12c-0.16,0.65-0.06,1.36-0.08,2.04
			c-0.67,1.77-1.35,3.54-1.18,5.49c-1.53,3.83-1.99,7.93-2.96,11.91c-1.57,6.41-5.32,11.16-11.69,12.65
			c-17.73,4.15-35.57,7.82-53.37,11.67c-0.19,0.34-0.53,0.52-0.79,0.25c-0.31-0.33,0.1-0.52,0.34-0.69
			c14.19-14.89,28.38-29.78,42.56-44.68c6.62-6.95,13.27-13.87,19.8-20.9c3.3-3.56,5.42-7.84,6.9-12.47
			c2-6.27,4.14-12.49,6.51-19.61c1.17,9.37,0.71,17.82-0.39,26.24C187.6,314.51,185.47,323.83,183.19,333.12z"/>
		<path class="st0" d="M113.9,376.88c-0.19,0.34-0.53,0.52-0.79,0.24c-0.31-0.33,0.1-0.52,0.34-0.69
			C113.61,376.59,113.76,376.73,113.9,376.88z"/>
	</g>
	<g>
		<path class="st1" d="M254.45,233.27c-3.08,2.05-6.27,3.96-9.21,6.19c-1.77,1.34-3.09,0.77-4.35-0.37
			c-4.82-4.34-9.85-18.12-5.08-25.57c1.94,5.2,1.98,10.79,4.18,15.78c0.86,1.94,0.58,5.36,3.6,4.85c2.71-0.46,2.97-3.67,3.55-6.1
			c0.13-0.54,0.2-0.99-0.44-1.37c-3.15-1.91-3.27-2.74-1.42-5.96c0.57-0.99,1.88-1.69,1.44-3.37c-1.45-0.25-2.8,1.92-4.4,0.42
			c-0.2-0.56,0.29-0.92,0.63-1.32c3.21-3.75,3.22-3.78-1.35-4.74c-1.06-0.22-1.32-0.6-0.85-1.55c1.59-3.25,3.57-6.03,7.56-6.5
			c3.08-0.36,5.66-2.18,8.66-2.94c5.86-1.48,8.72,2.15,9.7,6.14c1.77,7.22,2.45,14.52,1.25,21.91c-0.86,5.29-2.68,10.17-6.59,14.01
			c-1.12,1.1-2.35,2.41-4.3,1.41c-2.11-1.08-3.8-2.57-4.84-4.7c-0.33-0.68,0.41-1.15,0.7-1.71c0.7-1.33,2.21-2.26,2.04-4.02
			c0.09-0.17,0.31-0.4,0.26-0.48C254.97,232.92,254.7,233.05,254.45,233.27z M258.2,214.34c0.42-0.52,0.64-0.67,0.68-0.86
			c0.16-0.74,0.25-1.49,0.37-2.24c0.11-0.72-0.2-1.73,0.74-1.98c1.2-0.32,1.42,0.84,1.69,1.6c1.78,4.91,1.57,9.9,0.38,14.89
			c-0.35,1.48-1.08,2.91-1.24,4.4c-0.17,1.63,0.77,3.39,2.21,3.63c1.33,0.22,1.89-1.73,1.94-2.91c0.32-6.99,1.35-13.98-0.82-20.92
			c-2.02-6.45-7.08-8.09-12.37-3.79c-1.62,1.32-1.36,2.57,0.41,3.13C254.85,210.14,256.47,212.06,258.2,214.34z M254.52,227.93
			c-0.33-1.05-0.88-2.19-1.87-2c-1.3,0.25-1.37,1.75-1.66,2.87c-0.24,0.9,0.08,1.6,1.11,1.4
			C253.35,229.97,253.9,228.86,254.52,227.93z M260.02,237.45c-0.31-0.77-0.57-1.72-1.47-1.56c-1.19,0.22-1.57,1.47-1.98,2.41
			c-0.37,0.84,0.54,1.16,1.15,1.04C258.77,239.13,259.73,238.62,260.02,237.45z M258.75,222.89c-0.29-0.61,0.33-1.93-1.27-1.95
			c-0.93-0.01-1.52,0.37-1.16,1.36c0.34,0.95,0.25,2.4,1.59,2.51C258.98,224.9,258.67,223.78,258.75,222.89z"/>
		<path class="st1" d="M267.57,477.07c-1.17,1.5-2.47,1.14-3.64,1.29c-1.52,0.2-3.1,0.32-4.54,0.81c-1.98,0.67-2.29,2.52-2.32,4.33
			c-0.03,1.78,1.34,2.1,2.71,2.25c1.98,0.22,3.31,1.23,2.65,3.24c-0.59,1.83-2.09,2.24-3.99,1.31c-2.57-1.25-5.19-1.17-7.35,0.89
			c-1.33,1.27-2.95,1.3-4.96,1.83c0.37-0.66,0.53-1.07,0.79-1.41c2.64-3.35,2.64-3.34-1.33-4.26c-0.52-0.12-1.33-0.29-1.44-0.62
			c-1.26-3.84-3.43-1.79-5.39-0.88c-1.29,0.6-2.56,1.27-3.81,1.95c-1.15,0.62-2.37,0.69-3.52,0.26c-0.88-0.33-2.05-0.84-2.07-1.89
			c-0.02-0.96,1.2-1.2,1.96-1.49c2.85-1.1,5.74-2.1,8.64-3.06c7.13-2.37,7.14-2.35,6.27-10.1c-1.19,0.15-1.69,1.17-2.47,1.8
			c-0.81,0.65-1.53,1.95-2.77,1.33c-1.22-0.61-1.78-1.85-1.86-3.28c-0.11-1.98,0.24-3.14,1.69-5.06c1.13,0.4,0.33,3.14,2.43,2.22
			c1.51-0.66,2.16-2.09,2.21-3.73c0.01-0.33-0.05-0.66-0.1-0.99c-0.94-6.06-0.94-6.06,4.72-8.48c2.99-1.28,5.84-3.21,9.38-2.17
			c0.09,0.21,0.28,0.45,0.23,0.58c-1.95,4.48-1.91,4.43,2.29,7.22c1.22,0.81,3.08,1.58,2.89,3.25c-0.18,1.59-2.03,2.14-3.4,2.81
			c-0.79,0.38-1.71,0.51-2.46,0.94c-1.44,0.84-4.53,0.4-3.77,3.04c0.67,2.35,2.59,4.6,5.56,4.31
			C263.29,475.09,265.21,476.25,267.57,477.07z M250.07,484.46c1.95,0.1,2.92-0.94,3.22-2.65c0.14-0.76-0.3-1.45-1.11-1.04
			c-1.42,0.73-3.43,0.96-3.9,2.69C247.91,484.88,249.45,484.24,250.07,484.46z M253.43,461.43c0.09-0.79-0.35-1.06-0.95-1.02
			c-1.37,0.08-2.59,0.47-2.89,2.05c-0.11,0.57,0.15,1.24,0.8,1.1C251.68,463.28,252.69,462.47,253.43,461.43z M252.38,465.37
			c-1.46,0.37-1.7,1.87-2.44,2.9c-0.18,0.25,0.56,0.94,1.18,0.82c1.49-0.29,2.12-1.49,2.43-2.78
			C253.66,465.79,253.05,465.38,252.38,465.37z M259.19,464.07c0-0.65-0.46-1.15-0.95-1.08c-1.2,0.18-1.72,1.21-1.95,2.25
			c-0.13,0.59,0.43,0.94,1.06,0.84C258.49,465.91,258.81,464.96,259.19,464.07z"/>
		<path class="st1" d="M250.36,192.36c-1.31-6.46-2.02-12.97-1.92-19.57c0.02-1.58,0.73-3.99-0.69-4.55
			c-1.68-0.67-2.29,1.9-3.4,2.99c-1.74,1.72-3.49,3.5-5.93,1.93c-2.47-1.58-3.3-4.45-3.08-7.19c0.16-2.01,1.9-0.58,2.83-0.36
			c3.24,0.78,6.53-0.42,8.27-3.14c0.87-1.36,1.14-2.3-0.92-2.82c-1.69-0.43-3.32-1.12-5.09-1.31c-0.91-0.1-1.8-0.57-2-1.49
			c-0.2-0.95,0.86-1.22,1.45-1.57c1.98-1.16,4.07-2.11,6.06-3.25c1.88-1.06,3-2.49,2.05-4.84c-0.4-1-0.57-2.11-0.75-3.18
			c-0.2-1.26-0.86-2.88,0.69-3.55c1.62-0.7,3.79-0.96,4.85,0.75c2.11,3.4,3.94,6.3,8.82,6.37c2.47,0.04,4.55,6.35,3.92,9.35
			c-0.89,4.18-5.12,8.02-9.45,8.26c-1.86,0.1-2.5,1.09-2.87,2.57c-0.65,2.69-0.86,5.44-0.88,8.2
			C252.29,181.48,251.86,186.96,250.36,192.36z M260.42,154.42c-0.26-1.61-0.95-2.64-2.46-2.05c-2.35,0.92-4.04,2.62-4.71,5.15
			c-0.27,1.04-0.03,2.01,0.86,2.65c0.8,0.58,1.75,0.5,2.5-0.03C258.68,158.71,259.59,156.5,260.42,154.42z"/>
		<path class="st1" d="M270.55,347.25c-4.01,3.28-6.36,3.4-10.24,0.36c-2.92-2.28-5.79-4.64-8.56-7.1c-1.47-1.3-2.3-1.03-3.45,0.4
			c-1.49,1.84-3.4,3.32-5.06,5.03c-1.39,1.43-3.36,2.49-5.82,1.66c1.88-2,4.42-3.14,5.62-5.65c1.07-2.24,3.11-4.06,3.29-7.4
			c-1.51,1.24-2.45,2.11-3.5,2.83c-0.86,0.59-1.81,1.77-2.89,0.96c-1.16-0.87-1.53-2.38-1.44-3.85c0.1-1.56,1.47-0.94,2.3-1.22
			c1.14-0.39,2.3-0.87,3.48-0.98c2.24-0.21,2.9-1.73,3.26-3.53c0.33-1.65-0.28-2.37-1.96-1.56c-1.37,0.66-2.71,1.39-4.2,2.16
			c-0.93-2.22,0.97-3.35,1.62-4.77c0.67-1.46,0.81-2.32-0.16-3.8c-3.54-5.36-1.96-12.05,3.31-14.76c1.01-0.52,2.72-1.71,2.72,0.86
			c0.01,3.45,1.61,3.31,3.94,2.03c0.37-0.2,0.78-0.34,1.45-0.62c-0.1,3.01-2.3,4.81-3.19,7.17c-0.52,1.38-1.56,2.94-0.3,3.78
			c1,0.66,2.56-0.41,3.69-1.45c2.56-2.37,4.32-2.13,6.55,0.55c0.68,0.82,1.05,1.41-0.3,1.9c-0.92,0.33-1.76,0.88-2.67,1.23
			c-5.92,2.31-5.99,2.42-4.96,9.3c1.31-1.52,2.51-2.83,3.62-4.21c1.21-1.5,2.45-1.39,3.55-0.04c1.13,1.38,0.36,2.45-0.9,3.25
			c-1.47,0.94-2.93,1.89-4.64,2.4c-2.34,0.69-2.66,1.93-1.1,3.86c3.53,4.37,7.91,7.51,13.17,9.39
			C268.11,345.93,269.41,346.37,270.55,347.25z"/>
		<path class="st1" d="M247.19,286.55c-2.58,3.84-5.02,7.54-7.54,11.19c-0.48,0.7-1.28,1.45-2.23,1.05
			c-1.09-0.45-0.74-1.58-0.42-2.31c0.71-1.62,0.91-2.96-0.54-4.36c-0.8-0.77-0.63-1.77,0.47-2.47c0.8-0.52,1.49-1.22,2.45-2.02
			c-1.3-1.03-2.65-1.3-4-1.62c-0.99-0.23-2.43,0.08-2.58-1.48c-0.12-1.3,0.56-2.23,1.66-2.99c1.34-0.92,2.72-1.9,3.73-3.13
			c0.76-0.92,1.7-2.31,0.44-3.55c-1.33-1.31-2.51-0.08-3.47,0.67c-2.06,1.6-3.13,4.25-5.62,5.42c-0.58,0.28-1.14,0.62-1.69,0.96
			c-1.35,0.85-2.58,0.74-3.27-0.75c-0.74-1.62,0.44-2.67,1.71-3c8.04-2.07,12.13-8.39,16.23-14.75c0.23-0.36,0.38-1.09,0.6-1.1
			c2.76-0.17,4.44,1.84,6.44,3.24c1.31,0.92,1.63,2.02,0.8,3.39c-1.08,1.77-2.42,2.29-3.66,0.29c-1.87-3.01-3.5-1.94-5.44-0.07
			c-1.01,0.98-0.87,1.47-0.15,2.56c1.42,2.17,1.87,4.86,3.45,6.98c0.43,0.58,0.38,1.16-0.03,1.82c-0.45,0.73-0.63,1.63-1.07,2.37
			c-0.79,1.32-0.63,2.65,0.17,3.74C244.62,287.98,245.42,285.73,247.19,286.55z"/>
		<path class="st1" d="M241.26,444.08c-2.03-2.97-4.14-1.56-5.84-0.54c-2.14,1.29-2.48,0.05-2.84-1.46
			c-0.77-3.26,1.26-5.71,2.76-8.16c1.14-1.87,0.88-2.87-0.78-3.95c-0.73-0.48-1.39-1.08-1.99-1.71c-0.75-0.79-1.65-1.63-1.19-2.87
			c0.41-1.12,1.54-1.09,2.52-1.19c3.25-0.34,4.67-2.01,4.13-5.35c-0.21-1.28-0.35-2.73,0.33-3.89c0.49-0.84,0.6-2.24,2.11-2.18
			c1.48,0.06,2.05,1.24,2.47,2.3c0.34,0.88,0.23,1.94,0.27,2.92c0.03,0.76-0.32,1.98,0.04,2.23c4.92,3.46,0.6,7.6,0.66,11.3
			C243.93,435.45,242.31,439.39,241.26,444.08z"/>
		<path class="st1" d="M259.75,268.59c-0.43,1.93,0.35,3.23,2.52,3.63c1.76,0.32,1.76,1.09,0.46,2.06
			c-3.52,2.62-4.33,6.33-4.49,10.44c-0.2,5.27-1.59,10.43-1.63,15.73c-0.01,0.92-0.15,2.32-1.41,2.21c-1.05-0.1-0.79-1.42-0.81-2.24
			c-0.11-5.17-0.19-10.34-0.22-15.51c-0.01-2.01-0.33-3.42-2.91-3.22c-1.35,0.1-2.75-1.01-2.95-2.17c-0.21-1.24,0.89-2.39,2.32-2.75
			c2.8-0.7,3.4-2.81,3.41-5.29c0.01-1.65-0.21-3.33,0.05-4.94c0.2-1.23-0.03-3.2,2.17-3.03c1.96,0.15,3.25,1.22,3.49,3.28
			C259.82,267.31,259.76,267.86,259.75,268.59z"/>
		<path class="st1" d="M245.14,363.76c4.18,4.45,4.1,10.15,5.09,15.8c2.61-1.34,4.87-3.23,7.61-4.18c0.72-0.25,1.42-0.67,2.15-0.75
			c1.15-0.13,2.69-0.48,2.87,1.26c0.16,1.49-0.95,2.81-2.31,2.67c-7.31-0.74-11.7,4.61-17.06,7.93c-1.94,1.2-3.65,2.76-5.51,4.09
			c-1.45,1.03-2.95,2.81-4.84,1.24c-2.04-1.69-1.49-3.9-0.37-5.97c0.65-1.21,1.78-1.85,2.9-2.56c1.43-0.91,2.27-0.85,2.26,1.05
			c-0.01,2.61,1.15,2.2,2.91,1.38c4.44-2.09,5.45-3.74,5.52-8.61C246.41,372.61,245.36,368.26,245.14,363.76z"/>
		<path class="st1" d="M253.72,437.43c0.09,1.85-1.4,3.13-1.8,4.83c-0.19,0.83-0.71,2.11-1.75,2c-0.58-0.06-1.2-1.19-1.54-1.95
			c-2.35-5.26-1.48-10.83-1.34-16.29c0.04-1.66,1.95-1.84,3.18-2.44c0.89-0.44,2.03-0.77,1.85-1.97c-0.15-0.99-1.25-0.59-1.95-0.77
			c-0.7-0.18-1.7,0.01-1.74-1.09c-0.05-1.16,0.89-1.38,1.78-1.57c1.55-0.33,3.32-0.56,4.31,0.77c0.99,1.32,1.64,2.82,0.82,4.88
			c-1.45,3.64-1.97,7.64-4.73,10.73c-0.65,0.73-0.86,1.72-0.26,2.76C251.57,439.08,252.64,436.8,253.72,437.43z"/>
		<path class="st1" d="M249.02,403.07c0.81-1.02,1.57-1.56,2.57-1.84c1.65-0.47,1.33-1.77,1.13-2.98c-0.22-1.34-1.24-1.24-2.26-1.34
			c-1.53-0.15-3.49,1.71-4.37-0.12c-0.35-0.74,2.36-1.41,3.58-2.3c0.93-0.68,1.59-1.49,2.16-2.45c1.1-1.87,1.11-3.15-1.57-3.1
			c-0.44,0.01-0.88-0.05-1.32-0.08c-0.84-0.06-1.55-0.3-1.48-1.34c0.06-0.93,0.81-0.96,1.45-0.96c2.84-0.02,5.67,0.02,8.56,0.03
			c0.39,0.82-0.54,1.26-0.79,1.94c-0.56,1.53-0.29,2.35,1.56,2.17c0.75-0.08,1.87-0.99,2.17,0.41c0.28,1.3-0.94,1.29-1.81,1.73
			c-2.48,1.27-4.72,2.87-3.51,6.29c0.04,0.1,0.02,0.22,0.02,0.33C255.18,404.28,253.56,405.32,249.02,403.07z"/>
		<path class="st1" d="M261.71,427.21c1.7,0.4,1.15,1.53,0.66,2.41c-1.22,2.16-2.07,4.29-1,6.8c1.07,2.51,3.38,3.18,5.41,1.35
			c0.64-0.57,1.04-1.65,2.06-0.83c0.88,0.7-0.16,1.35-0.33,2.03c-0.19,0.74-0.28,1.53-0.62,2.21c-0.89,1.82-1.63,2.81-4.21,1.48
			c-4.34-2.22-5.12-6.84-7.93-10.01c-0.37-0.42-0.02-0.77,0.19-1.16C257.2,429.23,259.56,428.49,261.71,427.21z"/>
		<path class="st1" d="M256.82,357.37c2.3,2.61,2.9,4.96,2.4,7.56c-0.46,2.37-0.66,4.51,3.65,4.47c-1.94,1.2-2.91,1.87-3.93,2.42
			c-1.96,1.04-4.16,2.84-3.73-1.76c0.2-2.12-2.69-1.36-3.96-3.11C255.11,365.25,256.33,361.77,256.82,357.37z"/>
		<path class="st1" d="M240.96,382.4c0.19-4.22-1.02-7.64-1.27-11.54C245.07,375.74,245.63,378.35,240.96,382.4z"/>
		<path class="st1" d="M259.24,421.38c-0.17-1.93-0.08-3.36,2.09-2.88c1.01,0.22,2.91-0.34,2.48,1.58
			c-0.36,1.64-1.35,3.38-3.34,3.55C258.29,423.81,259.71,421.84,259.24,421.38z"/>
		<path class="st2" d="M254.45,233.27c0.25-0.23,0.53-0.35,0.73,0c0.05,0.08-0.17,0.32-0.26,0.48
			C254.77,233.6,254.61,233.43,254.45,233.27z"/>
	</g>
	<path class="st0" d="M273,10.66c1.3,1.68,3.29,13.45,4.54,14.83c0.62,0.69,2.09,1.12,1.83,2.01c-0.37,1.28-1.56-0.01-2.41,0.15
		c-1.1,0.2-1.93-0.64-2.83-1.11c-2.26-1.17-4.32-2.59-7.15-2.42c-1.56,0.09-3.03-1.22-4.63-1.72c-1.03-0.32-1.79-0.42-2.89-0.08
		c-1.31,0.4-2.85,0.13-4.28,0.06c-5.84-0.26-11.56,0.39-17.27,1.7c-3.78,0.87-6.89,2.98-10.27,4.6c-1.45,0.69-2.58,2.31-3.97,2.59
		c-3.06,0.63-4.78,2.89-6.52,4.88c-2.62,2.99-4.83,6.36-6.49,10.04c-0.73,1.61-1.63,3.14-1.81,4.95c-0.05,0.57-0.27,1.13,0.47,1.53
		c1.49-4.22,3.05-8.37,5.65-12.01c0.66-0.92,1.43-1.76,2.16-2.63c0.35-0.42,0.82-0.85,1.31-0.45c0.48,0.39,0.14,0.89-0.19,1.35
		c-1.18,1.61-2.35,3.23-3.43,4.9c-0.86,1.32-0.79,3-1.33,4.35c-0.67,1.68-1.47,3.33-2.07,5.07c-1.58,4.55-2.19,9.2-1.71,14.02
		c0.83-0.18,0.77-1.55,1.5-1.25c0.75,0.3,0.76,1.34,0.79,2.14c0.11,2.65,0.34,5.22,2.2,7.38c0.56,0.66,0.53,1.8,1.06,2.51
		c1.94,2.59,3.5,5.41,5.22,8.14c0.28,0.44,0.7,0.75,1.23,0.9c0.43,0.12,0.65,0.39,1.3,0.12c1.15-0.48,2.33,0.24,3.26,1.07
		c1.07,0.95,2.04,2.02,3.17,2.89c2.5,1.92,3.84,4.33,3.54,7.54c-0.13,1.39,0.58,2.34,1.53,3.26c1.79,1.75,1.68,2.5-0.39,3.66
		c-0.1,0.06-0.3,0.08-0.31,0.13c-0.17,2.04-2.34,1.82-3.34,2.96c-0.88,1.01-0.85,1.85,0.47,2c2.39,0.29,4.39,1.34,6.08,2.87
		c1.43,1.28,3.15,2.19,4.48,3.41c1.21,1.11,2.95,2.17,3.33,4.17c0.15,0.8,0.05,1.05-0.7,1.14c-1.03,0.11-2.06,0.4-3.08,0.35
		c-1.93-0.1-3.14,0.65-3.93,2.44c-0.54,1.21-1.89,1.05-2.74,0.59c-2.91-1.58-6.11-2.24-9.25-3.01c-2.02-0.5-3.28-2.03-5.03-2.85
		c-1.8-0.84-3.65-1.69-5.07-3.18c-0.25-0.26-0.58-0.52-0.84-0.07c-0.76,1.36-1.44,0.54-2.15-0.03c-2.15-1.74-4.09-3.72-5.81-5.84
		c-0.91-1.12-1.4-2.62-2.48-3.72c-0.18-0.19-0.24-0.82-0.09-0.97c1.3-1.26,0.04-1.83-0.6-2.62c-3.44-4.19-5.96-8.93-8.15-13.86
		c-1.55-3.48-2.22-7.14-2.95-10.86c-1.11-5.71-1.34-11.38-0.96-17.13c0.39-5.98,1.72-11.72,3.95-17.3c1.22-3.04,2.51-6.04,3.95-8.97
		c1.3-2.63,3.49-4.61,5.26-6.91c1.91-2.47,4.25-4.57,6.2-6.93c2.94-3.56,6.82-5.58,10.36-8.21c3.05-2.27,6.57-3.12,9.9-4.58
		c1.68-0.74,3.38-1.44,5.06-2.19c1.19-0.54,2.32-0.68,3.37,0.29c1.2,1.11,2.46,0.13,3.58-0.06c4.7-0.82,9.31-0.64,14.01,0.15
		c4.65,0.78,8.97,2.73,13.63,3.46c2.3,0.36,4.4,1.51,6.32,2.97c1.9,1.45,3.93,2.74,5.97,4c1.72,1.06,3.58,2.29,4.61,3.76
		c2.41,3.45,5.83,5.95,8.12,9.45c0.59,0.91,1.2,1.85,1.99,2.58c1.02,0.94,0.38,2.19,0.86,3.23c1.26,2.76,2.38,5.58,3.62,8.35
		c1.67,3.74,2.75,7.63,3.25,11.69c0.03,0.28,0.05,0.71,0.22,0.79c3,1.53,2.42,4.64,2.59,7c0.38,5.29-0.24,10.63-1.49,15.8
		c-1.28,5.29-3.61,10.23-5.87,15.18c-1.6,3.51-4.06,6.34-6.32,9.36c-1.04,1.39-2.12,2.69-4.09,2.88c-0.64,0.06-1.26,0.75-1.81,1.25
		c-1.92,1.75-4.08,3.13-6.35,4.36c-0.1,0.05-0.21,0.11-0.29,0.19c-2.31,2.35-5.57,2.53-8.43,3.52c-2.14,0.74-4.6,0.8-6.83-0.11
		c-0.76-0.31-1.42-0.31-2.16-0.18c-2.91,0.53-5.83,0.19-8.74,0.15c-0.39,0-0.9,0.03-0.92-0.53c-0.03-0.8,0.63-0.65,1.12-0.69
		c3.73-0.31,7.63-0.48,10.86-2.29c3.26-1.83,7.03-1.96,10.17-3.78c5.41-3.14,10.47-6.73,14.19-11.94c2.88-4.03,4.73-8.59,7.11-12.87
		c2.38-4.27,3-8.84,3.88-13.4c0.44-2.29,0.42-4.72,0.2-7.06c-0.14-1.5,0.97-2.48,0.8-4.03c-0.79-7.18-2.87-13.86-6.32-20.21
		c-0.91-1.68-2.27-3.03-3.04-4.77c-0.13-0.3-0.48-0.79-0.63-0.76c-2.23,0.5-2.74-2-4.31-2.43c-1.89-0.52-2.79-2.09-4.12-3.2
		c-2.55-2.13-5.17-4.16-8.03-5.86C275.47,22.13,274.39,10.57,273,10.66z M234.54,113.44c-1.02-0.75-2.28-0.19-3.33-0.67
		c-0.14-0.07-0.55,0.2-0.68,0.41c-0.24,0.39,0.11,0.65,0.38,0.83C232.25,114.88,233.44,114.62,234.54,113.44z"/>
</g>
</svg>
