<?xml version="1.0" encoding="utf-8"?>
<!-- Generator: Adobe Illustrator 25.0.1, SVG Export Plug-In . SVG Version: 6.00 Build 0)  -->
<svg version="1.1" id="Layer_1" xmlns="http://www.w3.org/2000/svg" xmlns:xlink="http://www.w3.org/1999/xlink" x="0px" y="0px"
	 viewBox="0 0 500 500" style="enable-background:new 0 0 500 500;" xml:space="preserve">
<style type="text/css">
	.st0{fill:#F9AE42;}
</style>
<g>
	<path class="st0" d="M251.14,170.61c0.67,0.48,1.46,0.42,2.09-0.02c1.73-1.2,2.49-3.05,3.19-4.79c-0.22-1.35-0.8-2.21-2.06-1.71
		c-1.97,0.77-3.38,2.19-3.94,4.3C250.19,169.26,250.39,170.07,251.14,170.61z"/>
	<path class="st0" d="M249.2,209.09c-1.36,1.1-1.14,2.15,0.34,2.62c2.22,0.7,3.57,2.31,5.01,4.22c0.35-0.43,0.54-0.56,0.57-0.72
		c0.13-0.62,0.21-1.25,0.31-1.88c0.1-0.6-0.16-1.44,0.62-1.65c1-0.27,1.19,0.7,1.42,1.34c1.49,4.11,1.32,8.28,0.32,12.45
		c-0.3,1.24-0.91,2.43-1.04,3.68c-0.14,1.36,0.65,2.84,1.85,3.04c1.11,0.19,1.58-1.45,1.62-2.43c0.26-5.84,1.13-11.7-0.68-17.5
		C257.86,206.86,253.63,205.49,249.2,209.09z"/>
	<path class="st0" d="M133.22,351.71c-0.07,0.06-0.12,0.12-0.12,0.2C133.1,351.83,133.16,351.77,133.22,351.71z"/>
	<path class="st0" d="M191.41,286.23c-1.24,3.87-3,7.45-5.77,10.43c-5.46,5.88-11.03,11.67-16.56,17.48
		c-11.86,12.46-23.73,24.92-35.6,37.38l0,0c0.12,0.12,0.25,0.25,0.37,0.37l0,0c14.89-3.23,29.81-6.3,44.64-9.76
		c5.33-1.25,8.47-5.22,9.78-10.58c0.81-3.32,1.2-6.75,2.48-9.96c-0.14-1.63,0.43-3.12,0.99-4.6c0.02-0.57-0.06-1.16,0.07-1.71
		c1.9-7.77,3.68-15.57,4.72-23.5c0.92-7.04,1.3-14.11,0.32-21.95C194.87,275.78,193.08,280.98,191.41,286.23z"/>
	<path class="st0" d="M253.84,426.51c0.96-0.14,1.23-0.94,1.54-1.69c0-0.55-0.38-0.96-0.79-0.9c-1.01,0.15-1.44,1.01-1.63,1.88
		C252.85,426.3,253.32,426.59,253.84,426.51z"/>
	<path class="st0" d="M267.45,46.13c-0.09-0.04-0.17-0.08-0.26-0.12c0.41,0.91,0.89,2.72,1.37,4.67
		C268.22,48.86,267.85,47.03,267.45,46.13z"/>
	<path class="st0" d="M254.31,224.68c0.9,0.07,0.64-0.86,0.71-1.6c-0.24-0.51,0.27-1.61-1.06-1.63c-0.78-0.01-1.27,0.31-0.97,1.13
		C253.27,223.38,253.19,224.59,254.31,224.68z"/>
	<path class="st0" d="M231.73,131.99c1.12,0.73,2.12,0.51,3.03-0.47c-0.85-0.63-1.91-0.16-2.79-0.56c-0.12-0.05-0.46,0.17-0.57,0.34
		C231.21,131.62,231.5,131.85,231.73,131.99z"/>
	<path class="st0" d="M249.91,225.62c-1.09,0.21-1.15,1.47-1.39,2.4c-0.2,0.75,0.06,1.33,0.93,1.17c1.05-0.2,1.51-1.13,2.03-1.9
		C251.21,226.41,250.75,225.46,249.91,225.62z"/>
	<path class="st0" d="M254.85,233.95c-0.99,0.18-1.31,1.23-1.65,2.02c-0.31,0.71,0.45,0.97,0.96,0.87c0.88-0.18,1.68-0.6,1.92-1.58
		C255.82,234.61,255.6,233.82,254.85,233.95z"/>
	<path class="st0" d="M248.03,424.39c1.08-0.23,1.92-0.91,2.54-1.78c0.08-0.66-0.29-0.88-0.79-0.86c-1.15,0.06-2.17,0.39-2.42,1.71
		C247.27,423.95,247.49,424.51,248.03,424.39z"/>
	<path class="st0" d="M249.69,425.91c-1.22,0.31-1.43,1.57-2.04,2.42c-0.15,0.21,0.47,0.79,0.98,0.69c1.25-0.25,1.77-1.25,2.03-2.33
		C250.76,426.26,250.25,425.92,249.69,425.91z"/>
	<path class="st0" d="M249.53,438.8c-1.19,0.61-2.87,0.8-3.26,2.25c-0.32,1.18,0.97,0.64,1.49,0.83c1.63,0.08,2.44-0.78,2.7-2.21
		C250.57,439.03,250.21,438.45,249.53,438.8z"/>
	<path class="st0" d="M248,10C116,10,9,117,9,249s107,239,239,239s239-107,239-239S380,10,248,10z M198.35,88.1
		c0.33-5.01,1.44-9.8,3.3-14.47c1.02-2.55,2.1-5.05,3.31-7.5c1.09-2.2,2.92-3.86,4.4-5.78c1.59-2.07,3.56-3.82,5.19-5.8
		c2.46-2.98,5.71-4.66,8.67-6.87c2.55-1.9,5.5-2.61,8.28-3.83c1.41-0.62,2.83-1.2,4.23-1.84c1-0.45,1.94-0.57,2.82,0.24
		c1.01,0.93,2.06,0.11,3-0.05c3.93-0.69,7.79-0.53,11.72,0.13c3.89,0.65,7.5,2.28,11.4,2.89c0.88,0.14,1.71,0.41,2.52,0.79
		c-0.09-0.19-0.17-0.36-0.26-0.47c0.18-0.01,0.35,0.21,0.52,0.59c0.87,0.43,1.71,0.97,2.5,1.58c1.59,1.21,3.29,2.29,5,3.34
		c1.44,0.89,2.99,1.91,3.86,3.15c2.02,2.88,4.87,4.98,6.79,7.9c0.5,0.76,1.01,1.55,1.67,2.15c0.86,0.79,0.32,1.83,0.72,2.7
		c1.05,2.31,1.99,4.67,3.03,6.98c1.4,3.13,2.3,6.38,2.72,9.78c0.03,0.23,0.04,0.59,0.18,0.66c2.51,1.28,2.02,3.89,2.16,5.86
		c0.32,4.42-0.2,8.89-1.24,13.21c-1.07,4.43-3.02,8.55-4.91,12.7c-1.34,2.93-3.4,5.31-5.28,7.83c-0.87,1.16-1.77,2.25-3.42,2.41
		c-0.54,0.05-1.06,0.63-1.52,1.05c-1.61,1.46-3.41,2.62-5.31,3.65c-0.08,0.05-0.18,0.09-0.24,0.16c-1.93,1.97-4.66,2.12-7.05,2.95
		c-1.79,0.62-3.84,0.67-5.71-0.09c-0.64-0.26-1.19-0.26-1.81-0.15c-2.43,0.44-4.88,0.16-7.31,0.13c-0.33,0-0.76,0.02-0.77-0.44
		c-0.02-0.67,0.53-0.54,0.94-0.58c3.12-0.26,6.38-0.4,9.09-1.91c2.73-1.53,5.88-1.64,8.51-3.16c4.53-2.63,8.76-5.63,11.87-9.99
		c2.41-3.37,3.96-7.19,5.95-10.76c1.99-3.57,2.51-7.39,3.25-11.21c0.37-1.91,0.35-3.95,0.17-5.9c-0.12-1.25,0.81-2.07,0.67-3.37
		c-0.66-6-2.4-11.6-5.29-16.9c-0.76-1.41-1.9-2.53-2.55-3.99c-0.11-0.25-0.4-0.66-0.53-0.64c-1.86,0.42-2.29-1.67-3.61-2.03
		c-1.58-0.44-2.33-1.75-3.45-2.68c-2.12-1.77-4.3-3.47-6.68-4.88c0.33,1.15,0.64,2.03,0.91,2.32c0.52,0.57,1.74,0.94,1.53,1.68
		c-0.31,1.07-1.3-0.01-2.01,0.12c-0.92,0.17-1.62-0.54-2.37-0.93c-1.89-0.98-3.61-2.17-5.98-2.03c-1.3,0.08-2.54-1.02-3.88-1.44
		c-0.86-0.27-1.49-0.35-2.42-0.07c-1.1,0.34-2.38,0.11-3.58,0.05c-4.89-0.22-9.67,0.33-14.45,1.43c-3.16,0.73-5.76,2.49-8.59,3.85
		c-1.21,0.58-2.16,1.93-3.32,2.17c-2.56,0.53-3.99,2.42-5.45,4.08c-2.19,2.5-4.04,5.32-5.43,8.4c-0.61,1.35-1.37,2.62-1.51,4.14
		c-0.05,0.48-0.23,0.94,0.39,1.28c1.24-3.53,2.55-7,4.73-10.05c0.55-0.77,1.2-1.47,1.81-2.2c0.29-0.35,0.69-0.71,1.1-0.38
		c0.4,0.33,0.12,0.74-0.16,1.13c-0.98,1.35-1.96,2.7-2.87,4.1c-0.72,1.1-0.66,2.51-1.11,3.64c-0.56,1.4-1.23,2.79-1.73,4.24
		c-1.32,3.81-1.83,7.7-1.43,11.73c0.7-0.15,0.64-1.3,1.26-1.05c0.63,0.26,0.64,1.12,0.66,1.79c0.09,2.22,0.29,4.36,1.84,6.17
		c0.47,0.55,0.44,1.51,0.89,2.1c1.62,2.17,2.93,4.52,4.37,6.81c0.23,0.37,0.58,0.63,1.03,0.75c0.36,0.1,0.54,0.33,1.09,0.1
		c0.96-0.4,1.95,0.2,2.73,0.89c0.89,0.79,1.71,1.69,2.65,2.41c2.09,1.61,3.21,3.62,2.96,6.31c-0.11,1.16,0.49,1.96,1.28,2.73
		c1.5,1.46,1.41,2.09-0.33,3.06c-0.08,0.05-0.25,0.06-0.26,0.11c-0.14,1.71-1.96,1.53-2.79,2.48c-0.73,0.84-0.71,1.54,0.39,1.68
		c2,0.24,3.67,1.12,5.09,2.4c1.19,1.07,2.64,1.83,3.75,2.85c1.01,0.93,2.46,1.82,2.78,3.49c0.13,0.67,0.04,0.88-0.59,0.95
		c-0.86,0.09-1.73,0.34-2.58,0.29c-1.62-0.08-2.63,0.54-3.29,2.04c-0.45,1.01-1.58,0.88-2.29,0.49c-2.44-1.32-5.11-1.87-7.74-2.52
		c-1.69-0.42-2.74-1.7-4.21-2.39c-1.51-0.71-3.05-1.41-4.24-2.66c-0.21-0.21-0.49-0.43-0.7-0.06c-0.64,1.14-1.21,0.45-1.8-0.03
		c-1.8-1.45-3.42-3.11-4.86-4.88c-0.76-0.93-1.17-2.19-2.07-3.11c-0.15-0.16-0.2-0.68-0.07-0.81c1.09-1.05,0.03-1.53-0.5-2.19
		c-2.88-3.51-4.98-7.47-6.82-11.59c-1.3-2.91-1.86-5.97-2.46-9.09C198.23,97.66,198.04,92.92,198.35,88.1z M251.19,274.94
		c-0.01-1.68-0.27-2.86-2.43-2.7c-1.13,0.09-2.3-0.84-2.47-1.82c-0.18-1.03,0.75-2,1.94-2.3c2.35-0.59,2.84-2.35,2.85-4.43
		c0-1.38-0.17-2.79,0.04-4.13c0.16-1.03-0.03-2.68,1.81-2.53c1.64,0.13,2.72,1.02,2.92,2.74c0.05,0.45,0,0.92,0,1.52
		c-0.36,1.62,0.29,2.7,2.11,3.03c1.48,0.27,1.47,0.91,0.38,1.72c-2.94,2.19-3.62,5.29-3.75,8.73c-0.17,4.41-1.33,8.72-1.37,13.16
		c-0.01,0.77-0.12,1.94-1.18,1.85c-0.88-0.08-0.66-1.19-0.68-1.88C251.28,283.59,251.21,279.26,251.19,274.94z M257.17,239.71
		c-0.94,0.92-1.96,2.01-3.6,1.18c-1.76-0.9-3.18-2.15-4.05-3.93c-0.27-0.57,0.34-0.96,0.59-1.43c0.59-1.11,1.85-1.89,1.7-3.36
		c-0.13-0.13-0.26-0.27-0.4-0.41c-2.58,1.71-5.24,3.31-7.7,5.18c-1.48,1.12-2.58,0.64-3.64-0.31c-4.03-3.63-8.24-15.16-4.25-21.39
		c1.63,4.35,1.65,9.03,3.5,13.2c0.72,1.62,0.48,4.48,3.01,4.05c2.27-0.38,2.48-3.07,2.97-5.1c0.11-0.45,0.17-0.82-0.37-1.15
		c-2.64-1.6-2.73-2.3-1.19-4.98c0.48-0.83,1.57-1.41,1.2-2.82c-1.21-0.21-2.34,1.61-3.68,0.35c-0.17-0.47,0.24-0.77,0.53-1.11
		c2.68-3.13,2.69-3.16-1.13-3.97c-0.89-0.19-1.1-0.5-0.71-1.29c1.33-2.72,2.99-5.04,6.32-5.44c2.58-0.31,4.73-1.82,7.24-2.46
		c4.9-1.24,7.29,1.8,8.11,5.14c1.48,6.04,2.05,12.14,1.05,18.33C261.96,232.42,260.43,236.5,257.17,239.71z M243.95,170.17
		c-1.42-0.36-2.77-0.94-4.26-1.09c-0.76-0.08-1.51-0.47-1.67-1.25c-0.17-0.79,0.72-1.02,1.21-1.31c1.65-0.97,3.4-1.77,5.07-2.71
		c1.57-0.89,2.51-2.08,1.72-4.05c-0.34-0.84-0.48-1.76-0.63-2.66c-0.17-1.06-0.72-2.41,0.58-2.97c1.35-0.58,3.17-0.8,4.06,0.63
		c1.76,2.84,3.29,5.27,7.38,5.33c2.06,0.03,3.81,5.31,3.28,7.82c-0.74,3.5-4.28,6.71-7.9,6.91c-1.56,0.09-2.1,0.91-2.4,2.15
		c-0.55,2.25-0.72,4.55-0.74,6.86c-0.04,4.62-0.4,9.2-1.65,13.72c-1.1-5.41-1.69-10.85-1.61-16.37c0.02-1.32,0.61-3.33-0.57-3.81
		c-1.41-0.56-1.92,1.59-2.84,2.5c-1.45,1.44-2.92,2.93-4.96,1.62c-2.06-1.32-2.76-3.72-2.58-6.02c0.14-1.68,1.59-0.49,2.37-0.3
		c2.71,0.65,5.46-0.35,6.92-2.63C245.44,171.4,245.67,170.6,243.95,170.17z M213.04,400.05c-9.42,1.32-18.83,2.7-28.25,4.03
		c-12.21,1.73-24.47,3.17-36.62,5.26c-6.32,1.09-12.61,2.01-18.99,2.16c-7.83,0.18-15.66-0.58-22.86-3.63
		c-4.63-1.96-9.13-4.49-13.34-7.43c-4.18-2.92-7.4-6.75-11.01-10.23c-6.45-6.2-5.92-18.03-0.16-23.72c1.71-1.69,3.06-3.77,5.59-4.4
		c1.87-0.47,2.38-2.28,3.14-3.62c3.9-6.86,9.18-12.82,12.84-19.77c1.6-3.04,3.2-6.28,5.26-8.78c3.3-4.01,5.89-8.41,8.74-12.66
		c5.42-8.1,10.51-16.41,15.8-24.59c3.9-6.03,8.12-11.87,11.78-18.04c2.52-4.23,5.66-8.2,7.15-12.95c1-3.21,1.73-6.63,1.81-9.97
		c0.05-2.23,1.58-3.63,1.84-5.73c0.68-5.43,2.16-10.76,3.97-15.94c0.76-2.18,3-3.45,5.1-3.29c3.05,0.23,5.25,3.64,4.63,6.77
		c-1.11,5.61-2.46,11.17-3.72,16.75c-0.96,4.27-1.95,8.54-2.91,12.82c-0.8,3.57-2.09,6.92-4.08,10
		c-18.22,28.1-36.44,56.2-54.67,84.3c-1.92,2.96-3.94,5.86-5.75,8.89c-1.64,2.76-3.46,4.93-6.72,6.14
		c-4.38,1.62-4.99,6.47-1.61,10.44c5.68,6.66,12.57,11.65,20.77,14.82c9.94,3.85,20.06,3.79,30.44,2.11
		c14.13-2.28,28.33-4.1,42.51-6.11c12.75-1.81,25.51-3.6,38.26-5.42L213.04,400.05z M203.68,310.2c0.07,0.38,0.02,0.69-0.4,0.8
		c0,0,0,0,0.01,0c-0.92,7.68-3.17,15.08-4.65,22.65c-0.8,4.1-2.67,7.67-5.29,10.94c-4.83,6.02-11.64,7.93-18.73,9.45
		c-18.16,3.9-36.3,7.88-54.46,11.82c-0.65,0.14-1.32,0.21-1.97,0.37c-2.53,0.59-4.58-0.14-5.88-2.39c-1.36-2.35-0.94-4.59,0.91-6.54
		c6.52-6.86,13.05-13.72,19.59-20.57c14.78-15.5,29.56-31,44.35-46.47c2.88-3.01,4.03-6.85,5.29-10.64
		c4.07-12.28,8.12-24.57,12.24-36.84c1.43-4.27,5.65-5.66,8.78-3.03c1.37,1.15,1.75,2.74,1.85,4.35c0.8,12.97,2.96,25.86,2.49,38.91
		c-0.15,4.3-0.36,8.59-1.35,12.8c-0.16,2.13-0.33,4.26-1.12,6.27c-0.11,2.15-0.56,4.22-1.52,6.15
		C204.16,308.91,203.84,309.55,203.68,310.2z M214.47,174.29c-5.4,2.37-10.81,4.73-16.3,6.88c-12.88,5.06-20.54,14.34-23,27.94
		c-0.25,1.4-0.48,2.82-0.88,4.19c-0.88,3-3.45,4.44-6.71,3.85c-2.01-0.36-3.89-3.08-3.61-5.63c1.12-10.19,4.57-19.42,11.19-27.42
		c4.08-4.93,9.16-8.69,14.76-11.29c5.35-2.49,10.84-4.88,16.53-6.69c9.86-3.14,15.23-7.67,15.16-17.97l10.05,4.57
		c-0.74,4.81-1.89,6.35-4.64,10.66C223.9,168.3,219.76,171.96,214.47,174.29z M226.44,271.81c-0.62-1.35,0.37-2.24,1.43-2.51
		c6.73-1.73,10.15-7.02,13.58-12.34c0.2-0.3,0.32-0.91,0.5-0.92c2.3-0.14,3.72,1.54,5.39,2.71c1.1,0.77,1.37,1.69,0.67,2.83
		c-0.9,1.48-2.02,1.92-3.06,0.24c-1.57-2.52-2.93-1.63-4.55-0.06c-0.85,0.82-0.73,1.23-0.13,2.14c1.19,1.82,1.56,4.06,2.89,5.84
		c0.36,0.49,0.32,0.97-0.02,1.52c-0.38,0.61-0.53,1.37-0.9,1.99c-0.66,1.1-0.53,2.22,0.14,3.12c0.83,1.13,1.49-0.75,2.98-0.07
		c-2.16,3.21-4.2,6.31-6.31,9.36c-0.41,0.59-1.07,1.21-1.86,0.88c-0.91-0.38-0.62-1.32-0.36-1.93c0.59-1.35,0.76-2.48-0.45-3.65
		c-0.67-0.65-0.52-1.48,0.39-2.07c0.67-0.43,1.25-1.02,2.05-1.69c-1.09-0.86-2.22-1.09-3.35-1.36c-0.83-0.2-2.03,0.07-2.15-1.24
		c-0.1-1.09,0.47-1.86,1.39-2.5c1.12-0.77,2.27-1.59,3.12-2.62c0.63-0.77,1.42-1.94,0.37-2.97c-1.12-1.1-2.1-0.07-2.9,0.56
		c-1.72,1.34-2.61,3.55-4.7,4.54c-0.49,0.23-0.95,0.52-1.41,0.8C228.04,273.15,227.01,273.06,226.44,271.81z M239.07,346.85
		c4.5,4.08,4.97,6.27,1.06,9.66C240.3,352.98,239.28,350.12,239.07,346.85z M240.03,359.28c3.71-1.75,4.56-3.13,4.62-7.2
		c0.05-3.76-0.83-7.4-1.02-11.16c3.5,3.72,3.43,8.49,4.26,13.21c2.18-1.12,4.07-2.7,6.37-3.5c0.6-0.21,1.18-0.56,1.8-0.63
		c0.96-0.11,2.25-0.4,2.4,1.05c0.13,1.24-0.79,2.35-1.93,2.24c-6.12-0.62-9.79,3.86-14.27,6.63c-1.62,1-3.05,2.31-4.61,3.42
		c-1.21,0.86-2.46,2.35-4.05,1.04c-1.71-1.41-1.24-3.26-0.31-5c0.55-1.01,1.49-1.55,2.43-2.14c1.2-0.76,1.89-0.71,1.89,0.88
		C237.59,360.3,238.57,359.96,240.03,359.28z M258.46,345.63c-1.63,1.01-2.43,1.57-3.29,2.02c-1.64,0.87-3.48,2.38-3.12-1.47
		c0.16-1.77-2.25-1.14-3.31-2.6c3.23-1.41,4.26-4.33,4.67-8c1.93,2.18,2.43,4.15,2.01,6.32
		C255.03,343.87,254.87,345.67,258.46,345.63z M255.42,389.11c-0.15-1.62-0.07-2.81,1.75-2.41c0.84,0.19,2.43-0.29,2.08,1.32
		c-0.3,1.37-1.13,2.83-2.79,2.97C254.64,391.15,255.82,389.5,255.42,389.11z M248.15,402.44c0.86,1.48,1.75-0.43,2.66,0.1
		c0.08,1.55-1.17,2.62-1.5,4.04c-0.16,0.69-0.6,1.77-1.47,1.68c-0.49-0.05-1-1-1.29-1.64c-1.96-4.4-1.24-9.06-1.12-13.63
		c0.04-1.39,1.63-1.54,2.66-2.04c0.74-0.37,1.7-0.64,1.55-1.65c-0.12-0.83-1.05-0.49-1.63-0.64c-0.59-0.15-1.42,0.01-1.46-0.91
		c-0.04-0.97,0.74-1.15,1.49-1.31c1.3-0.27,2.78-0.47,3.61,0.64c0.83,1.11,1.37,2.36,0.68,4.08c-1.22,3.04-1.64,6.39-3.96,8.98
		C247.82,400.74,247.65,401.57,248.15,402.44z M251.95,370.48c0.03,0.08,0.01,0.18,0.01,0.28c0.07,4.05-1.29,4.92-5.09,3.04
		c0.68-0.85,1.31-1.31,2.15-1.54c1.38-0.39,1.11-1.48,0.94-2.49c-0.19-1.12-1.04-1.04-1.89-1.12c-1.28-0.13-2.92,1.43-3.66-0.1
		c-0.3-0.62,1.98-1.18,2.99-1.93c0.77-0.57,1.33-1.24,1.8-2.05c0.92-1.57,0.93-2.63-1.31-2.59c-0.37,0.01-0.74-0.04-1.1-0.07
		c-0.71-0.05-1.3-0.25-1.24-1.12c0.05-0.78,0.68-0.8,1.22-0.8c2.37-0.01,4.74,0.01,7.16,0.03c0.32,0.69-0.45,1.05-0.66,1.62
		c-0.47,1.28-0.24,1.97,1.31,1.81c0.63-0.06,1.56-0.83,1.82,0.34c0.24,1.08-0.78,1.08-1.51,1.45
		C252.81,366.29,250.94,367.62,251.95,370.48z M234.78,396.3c-0.61-0.4-1.17-0.9-1.67-1.43c-0.62-0.66-1.38-1.36-1-2.4
		c0.35-0.93,1.29-0.91,2.1-1c2.72-0.28,3.91-1.68,3.45-4.47c-0.18-1.07-0.3-2.28,0.28-3.25c0.41-0.7,0.5-1.88,1.76-1.83
		c1.24,0.05,1.72,1.03,2.06,1.92c0.29,0.73,0.19,1.62,0.22,2.45c0.03,0.64-0.27,1.65,0.03,1.86c4.12,2.9,0.5,6.36,0.55,9.45
		c0.05,3.28-1.31,6.57-2.19,10.5c-1.7-2.49-3.46-1.31-4.88-0.45c-1.79,1.08-2.08,0.04-2.38-1.22c-0.65-2.73,1.05-4.78,2.31-6.82
		C236.39,398.04,236.17,397.2,234.78,396.3z M259.35,436.78c-1.27,0.17-2.59,0.27-3.79,0.67c-1.66,0.56-1.91,2.11-1.94,3.62
		c-0.03,1.49,1.12,1.76,2.26,1.88c1.66,0.19,2.77,1.03,2.22,2.71c-0.5,1.53-1.75,1.87-3.34,1.1c-2.15-1.05-4.34-0.97-6.14,0.74
		c-1.12,1.06-2.47,1.08-4.15,1.53c0.31-0.55,0.44-0.9,0.66-1.18c2.21-2.8,2.21-2.79-1.11-3.56c-0.43-0.1-1.11-0.24-1.2-0.52
		c-1.05-3.22-2.87-1.5-4.51-0.74c-1.08,0.5-2.14,1.06-3.19,1.63c-0.96,0.52-1.99,0.58-2.94,0.22c-0.74-0.28-1.71-0.7-1.73-1.58
		c-0.02-0.81,1.01-1.01,1.64-1.25c2.39-0.92,4.8-1.76,7.23-2.56c5.97-1.98,5.97-1.97,5.25-8.45c-1,0.13-1.41,0.98-2.07,1.5
		c-0.67,0.54-1.28,1.63-2.32,1.11c-1.02-0.51-1.49-1.55-1.55-2.74c-0.09-1.66,0.2-2.62,1.42-4.23c0.95,0.34,0.28,2.62,2.04,1.86
		c1.26-0.55,1.8-1.75,1.85-3.12c0.01-0.27-0.04-0.55-0.08-0.83c-0.79-5.07-0.79-5.07,3.95-7.09c2.51-1.07,4.89-2.69,7.84-1.81
		c0.07,0.18,0.24,0.38,0.19,0.49c-1.63,3.75-1.6,3.7,1.91,6.04c1.02,0.68,2.58,1.32,2.42,2.72c-0.15,1.33-1.7,1.79-2.85,2.35
		c-0.66,0.32-1.43,0.42-2.06,0.79c-1.21,0.7-3.79,0.34-3.16,2.55c0.56,1.97,2.16,3.85,4.65,3.61c2.09-0.2,3.7,0.77,5.68,1.45
		C261.41,436.95,260.33,436.65,259.35,436.78z M263.18,403.84c-0.16,0.62-0.24,1.28-0.52,1.85c-0.75,1.52-1.36,2.35-3.52,1.24
		c-3.63-1.86-4.28-5.72-6.63-8.38c-0.31-0.35-0.02-0.65,0.16-0.97c1.06-1.89,3.02-2.52,4.82-3.59c1.42,0.33,0.96,1.28,0.55,2.02
		c-1.02,1.81-1.73,3.59-0.84,5.69c0.9,2.1,2.82,2.66,4.53,1.13c0.54-0.48,0.87-1.38,1.72-0.69
		C264.19,402.73,263.32,403.27,263.18,403.84z M256.32,327.41c-2.44-1.91-4.84-3.88-7.16-5.94c-1.23-1.09-1.92-0.86-2.89,0.34
		c-1.25,1.54-2.84,2.78-4.23,4.21c-1.16,1.2-2.81,2.08-4.87,1.39c1.57-1.67,3.7-2.63,4.7-4.72c0.9-1.87,2.6-3.39,2.76-6.19
		c-1.27,1.04-2.05,1.77-2.93,2.37c-0.72,0.49-1.51,1.48-2.41,0.8c-0.97-0.73-1.28-1.99-1.21-3.22c0.08-1.31,1.23-0.78,1.92-1.02
		c0.95-0.32,1.92-0.73,2.91-0.82c1.87-0.18,2.43-1.45,2.73-2.95c0.27-1.38-0.23-1.99-1.64-1.3c-1.14,0.56-2.26,1.16-3.51,1.81
		c-0.78-1.86,0.81-2.8,1.36-3.99c0.56-1.22,0.68-1.94-0.14-3.18c-2.96-4.48-1.64-10.08,2.77-12.34c0.84-0.43,2.27-1.43,2.28,0.72
		c0.01,2.89,1.35,2.77,3.29,1.7c0.31-0.17,0.65-0.28,1.21-0.52c-0.08,2.52-1.92,4.02-2.67,6c-0.43,1.15-1.31,2.46-0.25,3.16
		c0.84,0.56,2.14-0.34,3.08-1.21c2.14-1.98,3.62-1.78,5.48,0.46c0.57,0.69,0.88,1.18-0.25,1.59c-0.77,0.28-1.47,0.73-2.23,1.03
		c-4.95,1.94-5.01,2.02-4.15,7.78c1.1-1.27,2.1-2.37,3.03-3.52c1.01-1.25,2.05-1.17,2.97-0.03c0.95,1.16,0.3,2.05-0.75,2.72
		c-1.23,0.78-2.45,1.58-3.88,2.01c-1.95,0.58-2.23,1.61-0.92,3.23c2.95,3.65,6.62,6.28,11.02,7.86c1.11,0.4,2.2,0.76,3.15,1.5
		C261.54,329.85,259.57,329.95,256.32,327.41z M403.77,400.64c-4.51,3.14-9.6,5.58-14.89,7.46c-10.24,3.63-20.6,3.79-31.3,2.58
		c-11.01-1.25-21.83-3.8-32.93-4.5c-4.34-0.27-8.68-1.84-13.07-2.03c-6.27-0.26-12.22-2.49-18.44-2.66
		c-5.39-0.14-1.2-1.15-6.47-1.92l-6.32-10.19c14.27,2.02,9.53,0.95,23.8,2.98c13.9,1.98,27.81,3.91,41.71,5.87
		c5.57,0.78,11.14,1.68,16.73,2.31c17.78,2,32.44-4.17,44.32-17.3c4.28-4.73,3.1-9.28-2.83-11.51c-1.28-0.48-2.4-1.19-3.16-2.36
		c-17.52-27.07-35.03-54.14-52.54-81.2c-2.64-4.09-5.07-8.34-8.03-12.19c-5.07-6.58-6.15-14.49-7.94-22.16
		c-3.9-16.68-7.68-33.39-11.52-50.09c0,0-1.59-7.17-6.63-12.18c-3.69-3.67-7.48-7.09-12.3-9.15c-5.69-2.44-11.38-4.88-17.11-7.21
		c-11.19-4.55-17.04-12.95-19.21-24.72l10.27-3.38c0.6,1.89,0.58,3.97,1.15,5.88c1.59,5.29,4.88,9.3,9.94,11.56
		c4.75,2.12,9.69,3.85,14.47,5.85c7.81,3.28,15.34,7.32,20.69,14.35c3.45,4.52,7.42,12.24,7.42,12.24c3.62,10.63,5.34,21.73,8,32.6
		c2.69,10.98,5.04,22.04,7.63,33.04c0.96,4.06,3.95,7.06,6.05,10.49c4.38,7.16,9.08,14.13,13.72,21.12
		c6.73,10.14,13.05,20.54,19.99,30.53c3.52,5.07,6.64,10.42,9.98,15.61c4.38,6.8,8.79,13.57,13.19,20.36
		c0.62,0.95,1.34,1.63,2.46,2.17c8.85,4.22,12.21,16.14,6.64,24.21C413.63,392.39,408.99,397,403.77,400.64z M343.4,330.09
		c-9.99-10.47-19.95-20.97-29.97-31.41c-3.5-3.65-6.07-7.78-7.59-12.62c-1.64-5.23-3.49-10.39-5.46-16.21
		c-1.18,11.78,0.02,22.7,2.4,33.54c0.84,3.8-0.49,6.38-3.66,7.16c-3.34,0.82-5.68-0.9-6.62-4.9c-3.27-13.81-3.9-27.76-2.27-41.85
		c0.77-6.64,1.21-13.33,1.88-19.98c0.34-3.35,1.88-5.01,4.58-5.26c2.99-0.28,4.82,0.97,5.92,4.25c4.41,13.18,8.83,26.35,13.15,39.56
		c1.15,3.53,3,6.49,5.57,9.17c20.77,21.67,41.47,43.4,62.21,65.1c1.94,2.03,2.99,4.22,1.62,6.96c-1.21,2.42-3.37,3.28-6.88,2.51
		c-17.78-3.86-35.54-7.78-53.31-11.68c-3.26-0.72-6.6-1.17-9.74-2.24c-10.15-3.44-15.44-10.97-17.22-21.27
		c-0.26-1.5-0.71-2.99-0.81-4.49c-0.18-2.85,1.55-4.83,4.46-5.37c2.51-0.46,4.99,0.95,5.75,3.52c0.65,2.18,1.02,4.45,1.53,6.68
		c1.36,5.95,4.98,9.82,10.91,11.21c8.72,2.05,17.49,3.86,26.24,5.78c5.97,1.31,11.94,2.63,18.62,4.1
		C357.25,344.57,350.32,337.34,343.4,330.09z"/>
	<path class="st0" d="M133.2,352.1c-0.07-0.07-0.09-0.13-0.09-0.19C133.1,351.96,133.13,352.03,133.2,352.1
		c0.22,0.23,0.5,0.08,0.66-0.2l0,0C133.7,352.17,133.41,352.33,133.2,352.1z"/>
	<path class="st0" d="M133.48,351.52c-0.08,0.06-0.18,0.12-0.26,0.19C133.3,351.64,133.4,351.58,133.48,351.52L133.48,351.52z"/>
</g>
</svg>
